<svg viewBox="0 0 48.869 36.645" xmlns="http://www.w3.org/2000/svg"><path class="st0" d="M3.492 0C1.561 0 0 1.535 0 3.413v29.819c0 1.878 1.561 3.413 3.492 3.413h41.62c1.93 0 3.492-1.535 3.492-3.413V3.413C48.604 1.535 47.043 0 45.111 0z" fill="#fff"/><path class="st1" d="M1.905 0A1.886 1.886 0 0 0 .027 1.879v15.743l14.657-5.848c.053-1.138.82-2.063 1.88-2.328L18.07 0zm18.256 0-1.56 9.763a2.503 2.503 0 0 1 1.137 2.117v.132l11.88 6.139c.423-.344.979-.556 1.56-.556a2.54 2.54 0 1 1-2.54 2.54v-.159l-11.853-6.138a2.515 2.515 0 0 1-1.587.555 2.545 2.545 0 0 1-1.773-.714L.027 19.817V34.74c0 1.032.846 1.878 1.878 1.878H46.99a1.886 1.886 0 0 0 1.879-1.878V1.879A1.886 1.886 0 0 0 46.99 0zM7.62 3.651h1.878v2.09h2.09v1.88h-2.09v2.09H7.62V7.62H5.53V5.74h2.09zM33.152 23.84c.318 0 .556.106.768.318.185.211.29.529.29.952v8.096c0 .424-.105.741-.29.953-.186.212-.45.317-.768.317a.961.961 0 0 1-.74-.317c-.186-.212-.292-.529-.292-.926v-8.15c0-.423.106-.74.291-.925.185-.212.424-.318.741-.318zm-6.853.185c.635 0 1.165.08 1.614.239.45.158.847.37 1.138.608.291.264.53.53.662.82.132.291.212.556.212.82 0 .239-.08.477-.265.662a.902.902 0 0 1-.661.291c-.239 0-.424-.053-.53-.185-.132-.106-.264-.318-.397-.582-.185-.397-.396-.688-.661-.9-.265-.212-.688-.317-1.244-.317-.529 0-.952.106-1.296.344-.318.238-.476.502-.476.846 0 .212.052.37.158.53.106.158.265.264.45.37.185.106.397.185.582.238.186.053.53.159.98.265.581.132 1.084.29 1.56.45.476.158.873.37 1.19.581.318.238.583.53.768.873.185.344.265.794.265 1.297a3.31 3.31 0 0 1-.503 1.64c-.318.477-.794.874-1.402 1.138-.609.265-1.323.423-2.17.423-1.005 0-1.826-.185-2.487-.555a3.426 3.426 0 0 1-1.137-1.085c-.292-.45-.424-.9-.424-1.323 0-.238.08-.45.264-.635a.878.878 0 0 1 .662-.264c.212 0 .397.079.556.211.159.132.29.344.397.609.132.317.264.582.423.82.159.211.37.397.635.529s.635.212 1.085.212c.608 0 1.11-.132 1.481-.423.37-.291.582-.635.582-1.059 0-.344-.105-.609-.317-.82a1.992 1.992 0 0 0-.794-.476 10.912 10.912 0 0 0-1.296-.344c-.741-.16-1.35-.37-1.826-.609-.503-.238-.873-.529-1.164-.926-.29-.397-.424-.9-.424-1.482 0-.555.16-1.058.45-1.481.318-.424.741-.767 1.323-1.005.582-.239 1.27-.345 2.037-.345zm11.43.106h3.308c.476 0 .9.026 1.27.08.344.052.688.185.952.344.238.132.45.317.635.555.185.212.318.45.424.741.105.265.132.556.132.847 0 1.031-.503 1.772-1.534 2.249 1.349.423 2.01 1.243 2.01 2.487a2.56 2.56 0 0 1-.423 1.508c-.291.45-.688.794-1.19 1.005a4.133 4.133 0 0 1-1.059.265c-.397.053-.873.08-1.402.08H37.73c-.45 0-.768-.107-.953-.292-.185-.212-.291-.53-.291-.952V25.4c0-.45.106-.767.29-.979.186-.185.504-.29.954-.29zm.82 1.535v2.645h1.88c.528 0 .925-.053 1.19-.132.291-.106.503-.29.635-.555.106-.186.185-.424.185-.662 0-.503-.185-.847-.555-1.032-.37-.159-.927-.264-1.668-.264zm0 4.127v2.964h2.223c1.403 0 2.09-.503 2.09-1.508 0-.503-.185-.9-.555-1.112-.37-.238-.9-.344-1.614-.344z" fill="#e30613"/></svg>