<svg xmlns="http://www.w3.org/2000/svg" width="182" height="140" viewBox="0 0 182 140"><path fill="#fff" id="logo-icon-line" d="M23.413,52.3656c-3.756,4.721-8.217,8.388-14.327,8.388-4.111,0-7.779-1.396-7.779-6.294a45.32462,45.32462,0,0,1,1.135-6.815l4.455-20.614H0l.609-2.183H8.648c2.709,0,5.329-.349,8.033-.349l-5.324,22.626a51.71838,51.71838,0,0,0-1.313,7.252c0,2.272,2.012,2.792,3.756,2.792,1.485,0,3.319-1.136,4.544-1.923,3.933-2.531,5.767-7.334,6.814-11.706l4.454-18.692h9.086l-5.85,25.596a23.64614,23.64614,0,0,0-.875,5.24,1.70488,1.70488,0,0,0,1.745,1.403c3.146,0,6.992-7.253,8.127-9.791l1.922,1.053c-2.271,5.85-7.074,12.405-13.806,12.405-5.241,0-6.637-3.318-6.548-8.388M50.9123,11.701c.196-1.269,2.271-1.904,3.211-1.904,2.005,0,3.242,1.574,3.242,4.315,0,4.048-2.24,6.821-6.187,6.821h-1.573l1.307-9.232m-4.384,11.338a31.55274,31.55274,0,0,0,3.978.235c7.563,0,9.771-5.083,9.771-9.099,0-4.042-2.145-6.853-5.285-6.853a4.6932,4.6932,0,0,0-3.649,1.669l-.063-.063L52.5493,0h-2.906l-3.115,23.039M0,98H182V96H0Zm2.0247,10.0618c.069-.431.767-.647,1.085-.647.678,0,1.097.533,1.097,1.459a2.0463,2.0463,0,0,1-2.088,2.297h-.533l.439-3.109m-1.473,3.82a10.65647,10.65647,0,0,0,1.339.083,2.94656,2.94656,0,0,0,3.293-3.072c0-1.364-.724-2.309-1.783-2.309a1.56772,1.56772,0,0,0-1.224.565l-.025-.026.43-3.013h-.983l-1.047,7.772"/><path fill="#fff" id="logo-text" d="M.831,122.9155v-4.885H2.932v4.536c0,1.041.279,1.916,1.351,1.916s1.351-.875,1.351-1.916v-4.536h2.1v4.885c0,2.158-1.395,3.128-3.451,3.128s-3.452-.97-3.452-3.128m16.9595,2.9887v-7.874h-1.916l.033,5.349h-.026l-2.659-5.349h-2.678v7.874h1.93l-.063-5.381h.018l2.754,5.381Zm3.1284-.0003h2.095v-7.874h-2.095Zm9.4993.0003,2.683-7.874h-2.157l-1.758,6.18h-.025l-1.744-6.18h-2.234l2.64,7.874Zm10.4814,0v-1.491h-3.578v-1.777h3.261v-1.491h-3.261v-1.624h3.451v-1.491h-5.552v7.874Zm4.6892-4.6v-1.783h.552c.805,0,1.536.133,1.536.869,0,.889-.858.914-1.536.914h-.552m2.373,4.6h2.183l-.768-2.145c-.394-.958-.438-1.554-1.117-1.732v-.025a1.84481,1.84481,0,0,0,1.516-1.986c0-1.352-1.141-1.986-2.538-1.986h-3.743v7.874h2.094v-3.115h.437c.781,0,1.054.342,1.479,1.694l.457,1.421m4.378-.2031a8.12559,8.12559,0,0,0,2.348.343c1.745,0,3.458-.559,3.458-2.595,0-2.843-3.718-1.986-3.718-3.262,0-.692.882-.736,1.408-.736a4.25318,4.25318,0,0,1,1.751.362l.134-1.625a6.79149,6.79149,0,0,0-2.03-.291c-1.58,0-3.427.52-3.427,2.411,0,2.868,3.718,1.941,3.718,3.407,0,.634-.628.768-1.294.768a4.54123,4.54123,0,0,1-2.164-.52l-.184,1.738m8.4761.2028h2.101v-7.874h-2.101Zm8.0905.0003v-6.313h1.942v-1.561h-5.977v1.561h1.941v6.313Zm5.07-9.911h1.63v1.625h-1.63Zm2.576,0h1.624v1.625h-1.624Zm-.533,3.661h.025l.933,3.084h-1.974Zm4.347,6.25-3.04-7.874h-2.57l-2.988,7.874h2.132l.622-1.682h2.956l.584,1.682Zm4.9865,0v-6.313h1.941v-1.561h-5.982v1.561h1.941v6.313ZM2.9886,135.2439v-1.624h.609c.698,0,1.37.07,1.37.793,0,.66-.71.831-1.395.831h-.584m0,3.274v-1.852h.64c.724,0,1.542.082,1.542.939,0,.799-.799.913-1.567.913h-.615m-2.1,1.485h3.318c1.409,0,3.065-.394,3.065-2.278,0-.958-.54-1.523-1.593-1.739v-.019a1.78158,1.78158,0,0,0,1.39-1.839c0-1.352-1.092-1.999-2.558-1.999H.8886v7.874m14.422,0v-1.485h-3.572v-1.783h3.254v-1.491h-3.254v-1.624h3.451v-1.491H9.6376v7.874Zm4.8407-4.6v-1.783h.553c.805,0,1.535.133,1.535.869,0,.895-.857.914-1.535.914h-.553m2.373,4.6h2.189l-.767-2.138c-.401-.965-.444-1.561-1.117-1.739v-.025a1.83563,1.83563,0,0,0,1.509-1.986c0-1.352-1.141-1.986-2.537-1.986h-3.744v7.874h2.094v-3.109h.444c.775,0,1.047.336,1.479,1.688l.45,1.421m11.7633,0v-7.874h-1.916l.032,5.349h-.025l-2.659-5.349h-2.671v7.874h1.929l-.069-5.381h.018l2.754,5.381Z"/></svg>
